<mxfile host="app.diagrams.net" modified="2024-05-17T04:15:48.465Z" agent="Mozilla/5.0 (Windows NT 10.0; Win64; x64) AppleWebKit/537.36 (KHTML, like Gecko) Chrome/124.0.0.0 Safari/537.36" etag="4BquKRDgn44b-LjNZzcc" version="24.4.3" type="device">
  <diagram name="Page-1" id="fj_BhSe2IrIJ8brDK40I">
    <mxGraphModel dx="794" dy="454" grid="1" gridSize="10" guides="1" tooltips="1" connect="1" arrows="1" fold="1" page="1" pageScale="1" pageWidth="850" pageHeight="1100" math="0" shadow="0">
      <root>
        <mxCell id="0" />
        <mxCell id="1" parent="0" />
        <mxCell id="OGEAY6M-oRIWUgWsE-ZT-1" value="" style="rounded=0;whiteSpace=wrap;html=1;fillColor=#ffe6cc;strokeColor=#d79b00;" vertex="1" parent="1">
          <mxGeometry x="70" y="570" width="680" height="370" as="geometry" />
        </mxCell>
        <mxCell id="OGEAY6M-oRIWUgWsE-ZT-2" value="&lt;b&gt;AppComponent&lt;/b&gt;" style="text;html=1;align=center;verticalAlign=middle;whiteSpace=wrap;rounded=0;" vertex="1" parent="1">
          <mxGeometry x="70" y="540" width="110" height="30" as="geometry" />
        </mxCell>
        <mxCell id="OGEAY6M-oRIWUgWsE-ZT-3" value="&lt;b&gt;USER&lt;/b&gt;" style="text;html=1;align=center;verticalAlign=middle;whiteSpace=wrap;rounded=0;" vertex="1" parent="1">
          <mxGeometry x="373" y="510" width="60" height="30" as="geometry" />
        </mxCell>
        <mxCell id="OGEAY6M-oRIWUgWsE-ZT-4" value="Route" style="rounded=0;whiteSpace=wrap;html=1;" vertex="1" parent="1">
          <mxGeometry x="340" y="590" width="120" height="60" as="geometry" />
        </mxCell>
        <mxCell id="OGEAY6M-oRIWUgWsE-ZT-5" value="http://midominio&lt;b&gt;/auth&lt;/b&gt;" style="text;html=1;align=center;verticalAlign=middle;whiteSpace=wrap;rounded=0;" vertex="1" parent="1">
          <mxGeometry x="490" y="620" width="140" height="30" as="geometry" />
        </mxCell>
        <mxCell id="OGEAY6M-oRIWUgWsE-ZT-6" value="http://midominio/&lt;div&gt;&lt;br&gt;&lt;/div&gt;" style="text;html=1;align=center;verticalAlign=middle;whiteSpace=wrap;rounded=0;" vertex="1" parent="1">
          <mxGeometry x="520" y="600" width="60" height="30" as="geometry" />
        </mxCell>
        <mxCell id="OGEAY6M-oRIWUgWsE-ZT-8" value="" style="endArrow=classic;html=1;rounded=0;entryX=0.25;entryY=0;entryDx=0;entryDy=0;" edge="1" parent="1">
          <mxGeometry width="50" height="50" relative="1" as="geometry">
            <mxPoint x="399.5" y="540" as="sourcePoint" />
            <mxPoint x="399.5" y="590" as="targetPoint" />
          </mxGeometry>
        </mxCell>
        <mxCell id="OGEAY6M-oRIWUgWsE-ZT-11" value="" style="endArrow=classic;html=1;rounded=0;entryX=0.25;entryY=0;entryDx=0;entryDy=0;" edge="1" parent="1">
          <mxGeometry width="50" height="50" relative="1" as="geometry">
            <mxPoint x="399.5" y="650" as="sourcePoint" />
            <mxPoint x="399.5" y="700" as="targetPoint" />
          </mxGeometry>
        </mxCell>
        <mxCell id="OGEAY6M-oRIWUgWsE-ZT-12" value="" style="rounded=0;whiteSpace=wrap;html=1;fillColor=#dae8fc;strokeColor=#6c8ebf;" vertex="1" parent="1">
          <mxGeometry x="130" y="700" width="530" height="230" as="geometry" />
        </mxCell>
        <mxCell id="OGEAY6M-oRIWUgWsE-ZT-13" value="" style="whiteSpace=wrap;html=1;aspect=fixed;fillColor=#f8cecc;strokeColor=#b85450;" vertex="1" parent="1">
          <mxGeometry x="150" y="790" width="130" height="130" as="geometry" />
        </mxCell>
        <mxCell id="OGEAY6M-oRIWUgWsE-ZT-14" value="app.component.scss" style="text;html=1;align=center;verticalAlign=middle;whiteSpace=wrap;rounded=0;" vertex="1" parent="1">
          <mxGeometry x="177.5" y="840" width="75" height="30" as="geometry" />
        </mxCell>
        <mxCell id="OGEAY6M-oRIWUgWsE-ZT-15" value="" style="whiteSpace=wrap;html=1;aspect=fixed;fillColor=#f8cecc;strokeColor=#b85450;" vertex="1" parent="1">
          <mxGeometry x="335" y="790" width="130" height="130" as="geometry" />
        </mxCell>
        <mxCell id="OGEAY6M-oRIWUgWsE-ZT-16" value="app.component.scss" style="text;html=1;align=center;verticalAlign=middle;whiteSpace=wrap;rounded=0;" vertex="1" parent="1">
          <mxGeometry x="362.5" y="840" width="75" height="30" as="geometry" />
        </mxCell>
        <mxCell id="OGEAY6M-oRIWUgWsE-ZT-17" value="" style="whiteSpace=wrap;html=1;aspect=fixed;fillColor=#f8cecc;strokeColor=#b85450;" vertex="1" parent="1">
          <mxGeometry x="510.00000000000006" y="790" width="130" height="130" as="geometry" />
        </mxCell>
        <mxCell id="OGEAY6M-oRIWUgWsE-ZT-18" value="app.component.ts" style="text;html=1;align=center;verticalAlign=middle;whiteSpace=wrap;rounded=0;" vertex="1" parent="1">
          <mxGeometry x="537.5" y="840" width="75" height="30" as="geometry" />
        </mxCell>
        <mxCell id="OGEAY6M-oRIWUgWsE-ZT-19" value="Componente" style="text;html=1;align=center;verticalAlign=middle;whiteSpace=wrap;rounded=0;" vertex="1" parent="1">
          <mxGeometry x="355" y="720" width="60" height="30" as="geometry" />
        </mxCell>
        <mxCell id="OGEAY6M-oRIWUgWsE-ZT-21" value="" style="rounded=0;whiteSpace=wrap;html=1;fillColor=#d5e8d4;strokeColor=#82b366;" vertex="1" parent="1">
          <mxGeometry x="80" y="40" width="680" height="450" as="geometry" />
        </mxCell>
        <mxCell id="OGEAY6M-oRIWUgWsE-ZT-22" value="&lt;b&gt;AppModule&lt;/b&gt;" style="text;html=1;align=center;verticalAlign=middle;whiteSpace=wrap;rounded=0;" vertex="1" parent="1">
          <mxGeometry x="80" y="10" width="110" height="30" as="geometry" />
        </mxCell>
        <mxCell id="OGEAY6M-oRIWUgWsE-ZT-23" value="" style="whiteSpace=wrap;html=1;aspect=fixed;fillColor=#a20025;strokeColor=#6F0000;fontColor=#ffffff;" vertex="1" parent="1">
          <mxGeometry x="100" y="60.25" width="188.75" height="188.75" as="geometry" />
        </mxCell>
        <mxCell id="OGEAY6M-oRIWUgWsE-ZT-25" value="&lt;b&gt;AuthModule&lt;/b&gt;" style="text;html=1;align=center;verticalAlign=middle;whiteSpace=wrap;rounded=0;" vertex="1" parent="1">
          <mxGeometry x="160" y="70" width="60" height="30" as="geometry" />
        </mxCell>
        <mxCell id="OGEAY6M-oRIWUgWsE-ZT-26" value="" style="whiteSpace=wrap;html=1;aspect=fixed;fillColor=#0050ef;strokeColor=#001DBC;fontColor=#ffffff;" vertex="1" parent="1">
          <mxGeometry x="362.5" y="60" width="190" height="190" as="geometry" />
        </mxCell>
        <mxCell id="OGEAY6M-oRIWUgWsE-ZT-27" value="&lt;b&gt;DashboardModule&lt;/b&gt;" style="text;html=1;align=center;verticalAlign=middle;whiteSpace=wrap;rounded=0;" vertex="1" parent="1">
          <mxGeometry x="430" y="70" width="60" height="30" as="geometry" />
        </mxCell>
        <mxCell id="OGEAY6M-oRIWUgWsE-ZT-34" value="" style="rounded=0;whiteSpace=wrap;html=1;fillColor=#6a00ff;fontColor=#ffffff;strokeColor=#3700CC;" vertex="1" parent="1">
          <mxGeometry x="85.63" y="260" width="664.37" height="210" as="geometry" />
        </mxCell>
        <mxCell id="OGEAY6M-oRIWUgWsE-ZT-35" value="&lt;b&gt;SharedModule&lt;/b&gt;" style="text;html=1;align=center;verticalAlign=middle;whiteSpace=wrap;rounded=0;" vertex="1" parent="1">
          <mxGeometry x="390" y="270" width="60" height="30" as="geometry" />
        </mxCell>
        <mxCell id="OGEAY6M-oRIWUgWsE-ZT-38" value="Components" style="whiteSpace=wrap;html=1;aspect=fixed;fillColor=#f0a30a;fontColor=#000000;strokeColor=#BD7000;" vertex="1" parent="1">
          <mxGeometry x="310" y="320" width="80" height="80" as="geometry" />
        </mxCell>
        <mxCell id="OGEAY6M-oRIWUgWsE-ZT-39" value="Services" style="whiteSpace=wrap;html=1;aspect=fixed;fillColor=#f0a30a;fontColor=#000000;strokeColor=#BD7000;" vertex="1" parent="1">
          <mxGeometry x="177.5" y="320" width="80" height="80" as="geometry" />
        </mxCell>
        <mxCell id="OGEAY6M-oRIWUgWsE-ZT-40" value="Directives" style="whiteSpace=wrap;html=1;aspect=fixed;fillColor=#f0a30a;fontColor=#000000;strokeColor=#BD7000;" vertex="1" parent="1">
          <mxGeometry x="450" y="320" width="80" height="80" as="geometry" />
        </mxCell>
        <mxCell id="OGEAY6M-oRIWUgWsE-ZT-41" value="Pipes" style="whiteSpace=wrap;html=1;aspect=fixed;fillColor=#f0a30a;fontColor=#000000;strokeColor=#BD7000;" vertex="1" parent="1">
          <mxGeometry x="570" y="320" width="80" height="80" as="geometry" />
        </mxCell>
        <mxCell id="OGEAY6M-oRIWUgWsE-ZT-42" value="Services" style="whiteSpace=wrap;html=1;aspect=fixed;fillColor=#f0a30a;fontColor=#000000;strokeColor=#BD7000;" vertex="1" parent="1">
          <mxGeometry x="200" y="114.63" width="80" height="80" as="geometry" />
        </mxCell>
        <mxCell id="OGEAY6M-oRIWUgWsE-ZT-43" value="Components" style="whiteSpace=wrap;html=1;aspect=fixed;fillColor=#f0a30a;fontColor=#000000;strokeColor=#BD7000;" vertex="1" parent="1">
          <mxGeometry x="110" y="114.63" width="80" height="80" as="geometry" />
        </mxCell>
        <mxCell id="OGEAY6M-oRIWUgWsE-ZT-45" value="Services" style="whiteSpace=wrap;html=1;aspect=fixed;fillColor=#f0a30a;fontColor=#000000;strokeColor=#BD7000;" vertex="1" parent="1">
          <mxGeometry x="465" y="114.63" width="80" height="80" as="geometry" />
        </mxCell>
        <mxCell id="OGEAY6M-oRIWUgWsE-ZT-46" value="Components" style="whiteSpace=wrap;html=1;aspect=fixed;fillColor=#f0a30a;fontColor=#000000;strokeColor=#BD7000;" vertex="1" parent="1">
          <mxGeometry x="373" y="115" width="80" height="80" as="geometry" />
        </mxCell>
      </root>
    </mxGraphModel>
  </diagram>
</mxfile>
